<svg xmlns="http://www.w3.org/2000/svg" width="49" height="47" viewBox="0 0 49 47">
    <g fill="none" fill-rule="evenodd">
        <g fill="#FFF" fill-rule="nonzero">
            <path d="M11.117 20.753a1.304 1.304 0 0 0-.237-.04 1.01 1.01 0 0 0-.234.021c-.356.078-.667.363-.847.777-.18.414-.21.913-.081 1.359.114.395.34.714.632.888.072.043.148.077.225.101a.972.972 0 0 0 .232.037.722.722 0 0 0 .237-.022.935.935 0 0 0 .225-.078c.457-.227.765-.796.78-1.441.014-.645-.267-1.238-.712-1.501a.958.958 0 0 0-.22-.1zM16.741 18.364a1.053 1.053 0 0 0-.237-.041 1.005 1.005 0 0 0-.234.018c-.396.094-.732.437-.901.919a2.066 2.066 0 0 0-.028 1.218c.113.395.34.714.632.887a.914.914 0 0 0 .458.142c.08.005.159-.002.237-.023a.937.937 0 0 0 .226-.078c.622-.314.935-1.233.7-2.057-.115-.394-.342-.713-.633-.888a.813.813 0 0 0-.22-.097zM22.4 18.975a.982.982 0 0 0 .458.142c.08.006.16-.002.237-.023a.95.95 0 0 0 .226-.082c.456-.229.762-.796.777-1.439.015-.643-.265-1.234-.709-1.5a.962.962 0 0 0-.22-.1 1.31 1.31 0 0 0-.238-.04c-.078 0-.157.007-.234.022-.397.092-.734.434-.902.917a2.06 2.06 0 0 0-.028 1.217c.113.395.341.713.633.886z"/>
            <path d="M24.016 2.547a1.476 1.476 0 0 0-.765-.824 1.435 1.435 0 0 0-1.114-.033l-6.185 2.39c-.396.15-.708.47-.853.873a4.828 4.828 0 0 1-2.786 2.897 4.723 4.723 0 0 1-3.978-.287 1.442 1.442 0 0 0-1.211-.082L.938 9.867a1.463 1.463 0 0 0-.81.774 1.49 1.49 0 0 0-.033 1.128l12.84 34.278c.136.366.41.662.763.823.352.16.753.173 1.115.034l6.185-2.39c.395-.152.705-.47.85-.873a4.824 4.824 0 0 1 2.79-2.897 4.736 4.736 0 0 1 3.977.283c.373.204.815.235 1.211.083l6.186-2.39c.36-.137.653-.415.811-.772.159-.356.17-.762.032-1.126L24.015 2.547zm9.6 33.948l-4.232 1.648a7.595 7.595 0 0 0-5.772-.142A7.732 7.732 0 0 0 19.38 42l-4.232 1.648-11.83-31.545 4.232-1.648a7.595 7.595 0 0 0 5.772.145A7.709 7.709 0 0 0 17.554 6.6l4.232-1.648 11.83 31.542zM48.981 12.778a1.457 1.457 0 0 0-.592-.941l-4.775-3.38a1.452 1.452 0 0 0-1.188-.222 4.018 4.018 0 0 1-5.012-3.542 1.46 1.46 0 0 0-.609-1.05L32.03.27a1.451 1.451 0 0 0-2.02.332l-2.699 3.679L28.55 7.54l2.995-4.074 3.088 2.182a6.911 6.911 0 0 0 7.82 5.53l3.082 2.182-9.59 13.635 1.244 3.276 11.557-16.429c.212-.312.296-.692.236-1.064z"/>
        </g>
    </g>
</svg>
