<svg xmlns="http://www.w3.org/2000/svg" width="53" height="47" viewBox="0 0 53 47">
    <path d="M45.36 20.6H18.598V8.95h26.757l4.749 5.862L45.36 20.6zM24.438 6.448h2.66V2.501h-2.66v3.947zm28.285 7.589l-5.765-7.118a1.277 1.277 0 0 0-.992-.47h-16.33V1.251A1.26 1.26 0 0 0 28.365 0H23.17c-.7 0-1.269.56-1.269 1.25v5.2H17.33c-.7 0-1.268.559-1.268 1.25v14.152c0 .331.133.65.37.883.239.235.562.367.898.367l28.637-.001c.383 0 .746-.17.987-.465l5.765-7.033a1.237 1.237 0 0 0 .005-1.566z"/>
    <path d="M27.854 47V31.93h-4.076V47h-1.742V31.971h-15c-.386 0-.75-.175-.991-.473L.278 24.335a1.25 1.25 0 0 1 0-1.571l5.767-7.155c.241-.299.605-.473.991-.473h6.963v2.517H7.646L2.893 23.55l4.753 5.903h26.756V25.65h2.537v5.063c0 .695-.568 1.259-1.268 1.259h-5.9V47h-1.917z"/>
</svg>
