<svg xmlns="http://www.w3.org/2000/svg" width="42" height="33" viewBox="0 0 42 33">
    <g fill="none" fill-rule="evenodd">
        <g stroke="#FFF" stroke-linecap="round" stroke-linejoin="round" stroke-width="2.56">
            <path d="M37.574 21.342v7.696c0 1.083-.812 1.962-1.814 1.962H3.814C2.812 31 2 30.121 2 29.038V3.962C2 2.88 2.812 2 3.814 2H35.76c1.002 0 1.814.879 1.814 1.962v7.791"/>
            <path d="M32.725 11.667h-2.989c-1.03 0-1.864.882-1.864 1.97v5.725c0 1.089.835 1.971 1.864 1.971h8.4c1.03 0 1.864-.882 1.864-1.97v-5.726c0-1.088-.835-1.97-1.864-1.97h-1.23"/>
        </g>
    </g>
</svg>
