<svg xmlns="http://www.w3.org/2000/svg" width="19" height="25" viewBox="0 0 19 25">
    <path fill="#333" d="M9.599 0c1.484 0 2.812.252 3.983.757 1.171.504 2.156 1.192 2.956 2.063a8.98 8.98 0 0 1 1.831 3.04C18.79 7.014 19 8.235 19 9.52c0 1.303-.26 2.633-.78 3.992a25.003 25.003 0 0 1-1.966 4.004 36.504 36.504 0 0 1-2.573 3.723 70.69 70.69 0 0 1-2.598 3.125c0 .017-.123.126-.37.33a1.322 1.322 0 0 1-.867.305h-.074a1.31 1.31 0 0 1-.878-.305c-.24-.204-.359-.313-.359-.33a507.937 507.937 0 0 1-2.783-3.198 36.485 36.485 0 0 1-2.77-3.65 23.816 23.816 0 0 1-2.128-3.943C.284 12.224 0 10.872 0 9.521 0 8.236.256 7.015.767 5.86A9.829 9.829 0 0 1 5.9.756 9.191 9.191 0 0 1 9.6 0zm.297 23.315a56.273 56.273 0 0 0 3.29-4.052c.94-1.286 1.724-2.503 2.35-3.65.627-1.148 1.097-2.23 1.41-3.247.314-1.018.47-1.966.47-2.845 0-.992-.152-1.965-.457-2.917a7.286 7.286 0 0 0-1.423-2.551c-.643-.749-1.455-1.351-2.436-1.807-.982-.456-2.149-.683-3.501-.683a7.67 7.67 0 0 0-3.092.634 8.196 8.196 0 0 0-2.549 1.721 8.296 8.296 0 0 0-1.731 2.54 7.484 7.484 0 0 0-.644 3.063c0 1.156.248 2.328.743 3.516a20.973 20.973 0 0 0 1.88 3.504 34.387 34.387 0 0 0 2.498 3.32 340.801 340.801 0 0 0 2.573 2.99l.42.464.1.098a.404.404 0 0 1 .062-.049c.024-.016.037-.032.037-.049zM9.525 4.712c1.32 0 2.44.46 3.364 1.38.924.919 1.386 2.022 1.386 3.307 0 1.303-.462 2.41-1.386 3.32-.923.912-2.045 1.368-3.364 1.368-1.303 0-2.42-.456-3.352-1.367-.932-.912-1.398-2.018-1.398-3.32 0-1.286.466-2.39 1.398-3.309.931-.92 2.049-1.38 3.352-1.38zm0 7.812a3.01 3.01 0 0 0 2.226-.927c.61-.619.916-1.36.916-2.222 0-.863-.31-1.6-.928-2.21A3.071 3.071 0 0 0 9.5 6.25c-.874 0-1.62.305-2.239.916a2.991 2.991 0 0 0-.928 2.209c0 .863.314 1.603.94 2.222a3.092 3.092 0 0 0 2.252.927z"/>
</svg>
