<svg xmlns="http://www.w3.org/2000/svg" width="18" height="18" viewBox="0 0 18 18">
    <g fill="none" fill-rule="evenodd">
        <path fill="#F8F8F8" d="M-762-751H678v2275H-762z"/>
        <path fill="#424543" d="M9.116 0a8.985 8.985 0 0 1 6.247 2.637 8.957 8.957 0 0 1 2.476 4.66c.186.974.21 1.978.074 2.96a8.97 8.97 0 0 1-2.705 5.256 9.031 9.031 0 0 1-2.807 1.821 9.011 9.011 0 0 1-6.802 0 9.031 9.031 0 0 1-4.71-4.433 8.97 8.97 0 0 1-.801-2.644 9.072 9.072 0 0 1 .053-2.85 8.966 8.966 0 0 1 2.42-4.693A8.983 8.983 0 0 1 8.884 0h.232zm-.217 1.171a7.819 7.819 0 0 0-5.5 2.36 7.862 7.862 0 0 0-1.415 1.991 7.781 7.781 0 0 0-.673 1.996 7.897 7.897 0 0 0-.064 2.577c.111.795.347 1.574.696 2.297a7.873 7.873 0 0 0 4.1 3.858 7.839 7.839 0 0 0 5.916 0 7.862 7.862 0 0 0 4.098-3.858 7.779 7.779 0 0 0 .696-2.297 7.898 7.898 0 0 0-.064-2.577 7.78 7.78 0 0 0-2.154-4.053A7.819 7.819 0 0 0 9.101 1.17H8.9zM9.2 9.375l4.603-.218.028.584-4.77.226h-.03a.31.31 0 0 1-.19-.084c-.019-.019-.022-.025-.038-.047L5.666 5.085l.488-.322C7.17 6.299 8.185 7.837 9.201 9.375z"/>
    </g>
</svg>
